<svg width="22" height="22" fill="none" xmlns="http://www.w3.org/2000/svg" viewBox="0 0 22 22" id="icon-insta"><path d="M22 12.5849c0-2.3773-.302-4.75471-.302-7.03301 0-.79245-.1006-1.48585-.2013-2.2783-.1006-.29717-.1006-.6934-.2013-1.08963-.3019-.19811-.2013-.59434-.5032-.79245-.4026-.19811-1.2078-.09906-1.7111-.19811-.7045 0-1.3084-.09906-1.9123-.19812-1.9124-.09905-4.0261-.09905-6.0391-.09905C9.11669.89623 7.10367.79717 5.39261.5H3.17829c-.10065 0-.10065.09906-.2013.09906-.60391 0-1.10716.19811-1.61042.29717-.2013.09905-.4026.19811-.70455.29717-.10065.19811-.50326.09905-.6039.39622-.20131.19812.2013.49529 0 .59434v.89151c.2013.09906 0 .59434.10064.79246v.99056c0 1.28774.10065 2.37736.10065 3.6651.50326 2.77361.4026 6.43871.10066 9.31131.2013.5943.4026 1.0896.50325 1.684.30195.4953.30195 1.0896.70455 1.4858.50326.1981 1.20782.1981 1.91237.1981.4026.0991.70456.2972 1.10716.2972 2.81822-.1981 5.5358-.1981 8.4547-.1981 2.7175.1981 5.8377.1981 8.354-.1981.2013-.0991.1006-.4953.2013-.7925-.1007-.3962.2013-.3962.2013-.7924C22 17.4387 22 15.0613 22 12.5849ZM8.91539 6.4434c.80521-.19812 1.50981-.29717 2.41561-.29717.7046.09905 1.3085.29717 1.9124.49528.1006.19811-.2013.49528.2013.6934.1006 0 .1006-.00001.2013.09905.4026 0 .8052.19812 1.1071.39623.5033.09906.5033.49528 1.1072.39623-.1007.19811-.1007.49528-.1007.79245.302 1.18863.5033 2.77363.302 4.25943-.2013.1981-.2013.3962-.302.6934-.3019.2972-.5032.7925-.8052 1.0896-.1006.1981-.3019.3962-.5032.4953-.1007.1981-.2013.4953-.5033.4953-.3019.1981-.6039 0-.8052-.0991-.4026.1981-.9058.2972-1.2078.5944-.8052-.0991-1.6104-.1981-2.41561-.2972-.2013-.0991-.50325-.2972-.8052-.2972-.20131-.1981-.50326-.3962-.80521-.4953-.10065-.099-.30195-.099-.50325-.1981-.20131 0-.20131-.1981-.50326-.1981-.10065-.3962-.4026-.5943-.50325-1.0896-.2013-.2972-.30196-.7925-.50326-1.1887 0-1.3868.10065-2.6745.4026-3.76413.30196-.59434.80521-1.08962 1.10717-1.68396.2013 0 .4026-.09906.4026-.29717.30195.09905.4026-.09906.70455-.09906.20131 0 .20131-.29717.40261-.49528ZM7.20432 3.76887c-.10065-.29717-.10065-.6934-.10065-1.08962 0-.29717.30196-.29717.30196-.49529 0-.09905-.10066-.09905-.20131-.09905.10065-.09906.70456-.09906.80521 0 .10065.49528-.4026.49528-.50325.69339 0 .19812.30195 0 .50325.09906 0 .89151-.10065 1.48585 0 2.17925h-.50325c0 .19811.2013.19811.50325.19811-.10065.29717.10065.39622.10065.59434-.2013.19811-.70456 0-1.10716.09905 0-.59434.30195-1.38679.2013-2.17924Zm-.70455-1.58491c.10065 0 .10065 0 .2013.09906.2013.29717 0 .6934-.10065.89151-.20131-.19811 0-.6934-.10065-.99057Zm.2013 1.78302c-.10065-.09906-.2013-.19811-.2013-.49528.2013.09905.2013.29717.2013.49528Zm0 1.38679c-.10065.09906-.10065 0-.10065-.19811.10065-.09906.10065.09906.10065.19811Zm-.2013.19812c.2013 0 .10065.19811.2013.19811 0 .19812-.30195.19811-.40261.09906.10066-.09906.20131-.19812.20131-.29717ZM4.1848 4.36321c0-.09906 0-.19812-.10066-.19812-.10065-.69339.10066-1.38679 0-1.98113.30196-.19811.80521 0 1.10717-.09905v1.08962c-.10065.09906-.20131.09906-.40261.09906-.10065.29717.30196.09905.40261.29717 0 .89151-.10065 1.78301.2013 2.37735-.60391-.09905-.90586.09906-1.40911.09906.10065-.59434 0-1.38679.50325-1.58491 0-.09905-.30195 0-.30195-.09905Zm-.50326 0c-.2013 0-.2013-.49528-.10065-.59434.30195 0 .2013.49528.10065.59434Zm-.2013.99056c.10065-.29717 0-.29717.10065-.69339.2013 0 .2013.79245-.10065.69339Zm.2013-2.08018c-.30195.09905-.30195-.29717-.2013-.39623.30195 0 .40261.29717.2013.39623Zm0-1.08963c0 .19812-.10065.19812-.10065.29717-.2013 0-.10065-.19811-.2013-.19811.10065-.09906.2013-.09906.30195-.09906Zm-.2013 3.6651c.10065 0 .10065.29717-.10065.19811.10065 0 .10065-.09906.10065-.19811Zm-.70456-3.6651c0 .29717-.4026.29717-.4026 0h.4026Zm-1.0065.09906c0 .19811-.30195.19811-.40261.39623-.2013-.19812.10065-.49529.40261-.39623Zm-.40261.69339c.20131-.19811.50326-.39622.70456-.59433 0-.09906.10065-.09906.10065-.19812h.2013c.10065.39623-.30195.29717-.30195.49529 0 .09905-.10065.09905-.10065.19811 0 .29717.10065.59434.10065.99057-.30195 0-.30195.29717-.60391.19811 0-.39623-.2013-.59434-.10065-1.08963Zm.10065 3.26888V4.66038c.20131-.19812.40261-.39623.60391-.49529.30195.49529.2013 1.3868.50325 1.88208-.4026.09906-.8052.09906-1.10716.19812ZM19.7857 17.2406c-.1007.9905-.2013 1.9811-.4026 2.7736-2.9189.099-6.0391-.0001-8.9579.1981-.2013 0-.302 0-.2014-.1981-.3019 0-.3019.1981-.50321.1981.20131-.2972.40261-.8916.20131-1.2878-.80521 0-.80521.7925-1.10716 1.2878-.70456-.0991-1.10716.099-1.81172.099.2013-.6934.70456-.9905.90586-1.6839-.4026-.4953-1.00651.099-1.20781.4952-.2013.4953-.60391.7925-.80521 1.2878H4.88935c.20131-.4953.50326-.8915.80521-1.3868.2013-.4953.60391-.6934.70456-1.3868-.2013-.2972-.40261 0-.70456 0-.10065.1981-.30195.2972-.4026.4953-.20131.3962-.50326.6934-.70456 1.0896-.2013.1981-.30195 0-.50326.1981-.4026.2972-.6039.6934-1.0065.9906-.20131-.0991 0-.3962.2013-.3962 0-.1982-.10065-.4953.10065-.5944.10065-.3962.2013-.5943.4026-.8915.10065-.6934.50326-1.1887.70456-1.8821-.60391.0991-.70456.5944-1.00651.9906-.2013.3962-.50325.7924-.70456 1.2877-.2013-.099.00001-.5943-.10065-.7924.10066-.5944.30196-1.0897.40261-1.684.10065-.1981.2013-.4953.2013-.7924.2013-.1982 0-.5944-.10065-.7925-.2013 0-.4026.0991-.50326.2972-.2013 0-.2013.4953-.30195.2971 0-2.5754-.50325-4.7547-.50325-7.33014 0-.29717-.2013-.39623-.2013-.6934 1.61041 0 3.12017.09906 4.83124.19811-.10065.09906-.2013.29718-.30196.39623-.10065.09906-.2013.19812-.4026.29717-.60391 1.68393-1.00651 3.96223-.6039 6.14153.2013.5943.6039.9905 1.0065 1.3868.90586.4953 1.61042 1.0896 2.51628 1.6839 1.71111.3963 3.82471.3963 5.53581 0 .2013-.099.5032-.1981.7045-.3962 1.4092-1.1887 2.8183-2.4764 3.0196-4.8538v-1.3868c-.2013-1.58486-.7046-2.8726-1.7111-3.56599.3019-.19812 1.1072-.00001 1.7111.09905h.7045c.4026 0 .9059-.09906 1.4091 0 .1007.19811.1007.49529.2013.79246-.1006 1.68396-.2013 3.26888-.2013 5.05188.1007.4953.1007.9906.2013 1.3868-.2013.7924-.3019 1.684-.5032 2.5755Zm.4026-11.09437c-.6039-.09906-1.2078-.29717-1.9124-.39623.1007-.29717.8052 0 1.0065-.19811.4026-.19811.302-.89151.302-1.48585 0-.29717.1006-.59434.1006-1.08963-.4026-.99056-1.8117-.39622-2.9189-.49528-.2013.6934-.5032 1.78302-.3019 2.67453.2013.49528 1.0065.29717 1.5098.49528-.1007.29717-.7046.09906-1.0065.09906-.302-.09905-.7046-.09906-1.0066-.19811-2.3149.09905-4.3279 0-6.54226.19811.10065-1.18868.10065-2.47641-.10065-3.56604h3.12021c-.302.39623-.9059.49528-1.3085.79245-.4026.19812-.9059.49529-1.1072.89152.2013.09905.5033-.19812.8053-.39623.4026-.09906.5032-.39623.8052-.49529.4026-.39622 1.1071-.59433 1.711-.8915.4026 0 .7046 0 1.0065.09905 1.3085 0 2.5163.09906 3.8248.09906.6039.09906 1.5097.09906 2.013.29717.1006.29717.2013.59434.3019.89151-.1006.99056-.3019 1.78302-.3019 2.67453Zm-5.9384-3.6651c.1006-.09905 0-.09905 0 0Zm0 0c-.5033.19811-1.0065.29717-1.4091.6934.5032-.19811 1.1071-.29717 1.4091-.6934Zm1.1071.59434c.1007-.09905 0-.09905 0 0Zm-1.8117.89151c.7046-.19811 1.2078-.59434 1.7111-.89151-.4026 0-.6039.29717-1.0065.39623-.1007.19811-.5033.19811-.7046.49528Zm-.7045-.79245c-.1007 0 .1006.09906 0 0Zm-.6039.59434c.1006-.09906 0-.09906 0 0Zm-.1007.09906c.1007 0 .1007-.09906 0 0 0-.09906 0-.09906 0 0Zm-.1006 0c.1006 0 .1006 0 0 0 0-.09906 0 0 0 0Zm-.8052.59433c.3019-.09905.6039-.29716.8052-.59433-.302.19811-.6039.39622-.8052.59433Zm2.3149.99057c.5033 0 .7046-.39623 1.2078-.49528.302-.29717.8052-.39623 1.0065-.79246-.6039 0-.8052.39623-1.2078.49529-.3019.39622-.8052.49528-1.0065.79245Zm-2.3149-.99057c-.302 0 0 .29717 0 0Zm-.6039.39623c.1006 0 .2013 0 0 0 .1006-.09906 0 0 0 0Zm2.9188.59434c-.2013.09906 0 .09906 0 0Zm-1.2078 1.78302c-.2013-.19811-.7045-.19811-1.0065-.39623-.7045 0-1.2078.09906-1.71106.19812-.30195.19811-.6039.29717-.90585.49528-.30196.19811-.40261.39623-.80521.49528-.2013.19812-.4026.49528-.70456.59434 0 .19811-.2013.29717-.30195.39623-.10065.09905-.10065.29717-.2013.39622 0 .09906 0 .29718-.10065.29718.10065 1.48583.30195 2.87263.70455 4.16033.30196.5944 1.00651.7925 1.40912 1.2878.6039.2971 1.30841.3962 2.11371.4953.3019-.0991.6039-.0991.9058-.0991 1.2078-.1981 2.1137-.6934 2.8182-1.3868.1007-.2972.302-.4953.5033-.6934-.302-.6934.3019-1.0896.5032-1.5849 0-1.2877-.2013-2.47641-.6039-3.36791-.3019-.59434-.9058-.79246-1.4091-1.08963-.1006 0-.2013 0-.2013-.09905-.2013-.09906-.7045-.19812-1.0065-.09906ZM8.91539 11.5943c-.10065-.099-.10065-.1981-.2013-.3962.30195-.099.2013.1981.2013.3962Zm.10065.2972c0-.099.10065 0 0 0 0 .1981 0 .0991 0 0Zm.4026-2.08018c0-.09906.10065 0 0 0 .10065.09906 0 .09906 0 0Zm1.71106-2.08019c-.2013.29717 0 .59434.1007.79246-.302 0-.6039-.79246-.1007-.79246Zm.4026 3.86317c-.1006 0 0 0 0 0 .1007 0 0 .0991 0 0Zm.7046 2.8727c0-.0991.1006 0 .2013 0 0 .099-.2013.099-.2013 0Zm2.2143-2.4764c-.2013-.0991-.1007.1981-.4026.1981.1006-.1981.1006-.2972.2013-.4953.2013 0 .3019.099.2013.2972ZM13.344 8.22642c.2013.09905.4026.19811.6039.39622.1007.19811.2013.39623.4026.49528.1007.79246.2013 1.48588.2013 2.37738-.3019.099-.4026.2972-.7045.3962-.8052 0-1.4091-.1981-1.9124-.4953-.2013-.2971-.4026-.4953-.5032-.7924V9.51415c.2013-.19811.3019-.39623.5032-.59434.2013-.09906.5033-.19811.5033-.59434 0-.09905-.1007-.09906-.1007-.19811.2013 0 .2013.19811.4026.19811s.302-.19811.6039-.09905Z"/></svg>
