<svg width="24" height="20" fill="none" xmlns="http://www.w3.org/2000/svg" viewBox="0 0 24 20" id="icon-twitter"><path d="M22.9571 4.24243c-.1943-.40404-.8745-.30304-1.3603-.40405h-1.0689c.0972-.40404.2915-.60606.4859-1.0101.0971-.40404.2915-.70707.1943-1.31313.0972-.20202.1943-.40404.2915-.60606.0972-.10101.1944-.50505.0972-.70707C21.4996 0 21.3053 0 21.0138 0c-.0972 0-.1944.101-.1944.101-.3886.40405-.7773 1.01011-1.2632 1.41415h-.0971c-.0972 0 0 0-.0972.10101s-.2915.20202-.3887.20202c-.2915.20202-.4858.40404-.8745.50505-.4858-.20202-1.166-.30303-1.8462-.40404-1.166.10101-2.2349.20202-2.9151.70707-.8745.30303-1.4575 1.0101-2.0405 1.61617 0 .30303-.2915.40403-.3887.70706 0 0 0 .10102-.0972.10102 0 .20202-.0971.30303-.0971.50505 0 .10101.1943.40404 0 .50505-.77739-.10101-1.45757-.60606-2.04059-1.0101-.68018-.40404-1.45753-.60607-2.04054-1.11112-.68018-.30303-1.2632-.80808-1.74905-1.31313-.19433-.30303-.48584-.50505-.68018-.90909-.38867-.20202-.19433-.90909-.68018-.90909-.29151 0-.29151.20202-.38868.40404-.09717.20202-.38867.20202-.38867.50505 0 0 0 .10101-.09717.10101-.19434 1.11111-.48585 2.0202-.48585 3.33333.09717.40404.29151.70707.58302 1.0101-.38868.10102-.68018.20203-.87452.50506-.09717 1.11111.38867 1.61616.68018 2.32323.09717.40404.38868.70707.58301 1.0101 0 .202.19434.303.29151.404 0 .1011.09717.101.09717.2021 0 .101.29151.202.09717.202-.38868.101-.97169.101-1.2632.404-.09717.3031-.09717.8081 0 1.1111 0 .2021.29151.3031.29151.5051.48584.404 1.06886.7071 1.5547 1.1111.58302.202 1.16603.303 1.84621.404-.09717.3031-.2915.6061-.58301.7071-.77735.404-1.74904.5051-2.62356.7071-.58302 0-.97169.202-1.5547.202-.29151.101-.87453.101-1.06887.202l-.19433.202c-.09717.4041.09717.7071.38867.9091 0 .3031.19434.3031.38868.4041.09717.202.29151.303.38867.404.48585.5051 1.2632.8081 1.84622 1.1111.77735.202 1.5547.4041 2.42922.5051.87452.101 1.84621.101 2.72073.202h.97169C9.645 20 10.3252 20 11.0054 20c.0971-.101.2915-.101.4858-.101.4859-.303 1.166-.4041 1.5547-.7071.583-.202.9717-.606 1.5547-.9091.8745-.808 1.8462-1.3131 2.4292-2.4242.1944-.202.3887-.4041.3887-.7071.2915-.202.3887-.505.583-.7071.3887-.404.6802-.909.9717-1.4141.2915-.505.583-1.1111.8745-1.6162 0-.404.2916-.505.2916-.9091.1943-.202.1943-.70702.3886-.90904 0-.30303 0-.40404.0972-.60606 0-1.31313 0-2.42424-.2915-3.43434.583-.20202 1.166-.30304 1.5547-.60607.7773.30303 1.2632-.101 1.0688-.70706Zm-3.3037 4.0404c-.1943.90909-.583 1.41414-.9717 2.02017.0972.4041-.0972.5051-.0972.9091-.1943.3031-.2915.7071-.3886 1.0101-.1944.3031-.2915.6061-.4859.9091-.3886.5051-.7773 1.1111-1.166 1.6162-.3887.606-.8745 1.0101-1.2632 1.5151-.3887.5051-.8745.9091-1.3604 1.3132-.4858.202-.8745.404-1.2632.707-.1943.101-.4858.202-.6801.3031-.1944.101-.4859.101-.6802.303-1.0689.101-2.23491.202-3.49811.101-.97169-.101-2.04055-.202-2.91507-.404-.87452-.2021-1.45753-.7071-2.23488-1.0101.19434-.2021.58301-.2021.97169-.2021 0-.202.38868 0 .38868-.101.2915.101.2915-.101.48584-.101.58301-.202 1.16603-.303 1.65187-.606.29151-.1011.38868-.4041.68018-.6061 0-.202.09717-.303.19434-.404 0-.3031.19434-.4041.09717-.8081.09717-.202.29151-.3031.29151-.7071-.09717-.101-.09717-.303-.29151-.404 0-.2021-.38867-.101-.38867-.2021-.29151 0-.38868 0-.58302-.101-.19433 0-.48584.101-.48584-.101-.77735 0-1.2632-.404-1.84621-.707.38867-.3031.97169-.4041 1.26319-.7071.48585-.101 1.06886-.101 1.06886-.7071 0-.7071-.77735-.7071-1.2632-.8081-.77735-.70704-1.16602-1.71714-1.74904-2.52522.19434-.20202.58302-.20202.68019-.40404.48584.10101.48584-.30303.68018-.50505 0-.50505-.29151-.60606-.58302-.80808-.2915-.20202-.48584-.50505-.68018-.70707 0-.80809 0-1.71718.09717-2.42425.09717 0 .09717 0 .09717.10101.19434.40404.58302.80809.77735 1.21213.48585.40404.87452.90908 1.55471 1.11111.48584.40404 1.06885.60606 1.5547 1.0101.58301.30303 1.16603.60606 1.65187.90909.68018.20202 1.06888.70707 1.94338.60606.1943-.10101.3887-.20202.583-.30303.2915-.50505-.0972-1.11112.0972-1.61617.2915-.70707.7773-1.0101 1.2632-1.51515.2915-.20202.583-.30303.7773-.50505.2915-.10101.6802-.20202.9717-.40404.3887 0 .6802-.10101.9717-.10101h1.2632c.1943.10101.4859.10101.6802.10101.1943.10101.3887.30303.6802.40404.7773.70707 1.2632 1.71717 1.3603 3.03031 0 .30303.0972.70707.0972 1.31313Zm.2915-5.65657c-.0972.30303-.1943.70707-.583.80808 0-.10101-.0972-.10101-.0972-.20202 0-.20202.1944-.20202.2915-.30303.0972-.10101.1944-.30303.3887-.30303.0972 0 0-.10101 0 0Zm-5.3443 3.0303c.1944.10101.2915.30304.4859.40405.0971.20202.2915.30302.583.40403 0-.20202.2915.00001.3887-.20201.1943 0 .1943-.20203.2915-.30304 0-.50505-.0972-1.0101-.3887-1.31313-.6802-.50505-1.6519 0-1.3604 1.0101Z"/></svg>
