<svg width="15" height="28" fill="none" xmlns="http://www.w3.org/2000/svg"><path d="M11.7035 5.25484c.9989 0 1.9979 0 2.6971-.30171C14.8002 4.14856 15 3.04228 15 1.936c-.1998 0-.0999-.30172-.1998-.40229 0-.20114-.2997-.20114-.2997-.40229-.2996-.20114-.4994-.40228-.6992-.60342-.6993-.20114-1.3985-.30171-2.1977-.50286-.7991 0-1.89795-.10057-2.59721.10057-2.59723 0-3.99573 1.10629-5.29435 2.41371 0 .10057 0 .20114-.09989.20114-.59937 1.60914-.0999 3.62056-.19979 5.63198.09989.40229.09989 1.00572.19979 1.408-.99894.30176-2.19766.40226-3.39638.50286-.29968.3017-.19979 1.1063-.19979 1.7097.0999.6034.29968 1.1063.39958 1.6091.19979.2012.59936.4023.79914.5029.0999 0 .0999.1006.0999.1006.49946.3017 1.4984 0 2.29755.1005-.0999 2.0115.29968 3.9223 0 5.7326 0 .3017.29968.4023.19978.8046 0 1.0057-.09989 2.0114.19979 2.7154-.29968.5028-.49947 1.0057-.39957 1.8103.09989 0 .09989.2011.09989.3017-.09989.5028.59936.2011.49947.704.19979.5028-.39958.2011-.39958.5028v.9052c.49947.3017 1.4984.2011 2.29755.2011.89904-.4023 2.19766-.5028 2.79702-1.2068.49947.2011.89904 0 1.1987-.2012 0-.3017.2997-.3017.1998-.704 0-.3017-.1998-.5028-.0999-.9051v-2.9166c-.1998-2.3131 0-4.928-.29966-7.2411.89906-.1006 1.89796-.1006 2.59726-.4023.3995-.5028.3995-1.2068.4994-1.9108.1998-.2012.1998-.6035.1998-1.0058.1998-.2011.0999-.7039.0999-1.1062-.0999-.60346-.1998-1.30746-.7991-1.40803-.8991-.20114-1.9979.60343-2.99684.30172 0-1.10629-.29968-2.31314 0-3.41942.79914-.20115 1.49844-.40229 2.19764-.60343ZM7.90757 10.0823c.09989.3017.29968.5028.39957.704.0999 0 .19979 0 .19979.1005 1.19872.1006 2.19767-.1005 3.09667-.3017 0 1.0057-.2997 1.7097-.4994 2.5143-.6993 0-1.49845.3017-1.99791.2011-.29968.2012-.39958.5029-.59936.704 0 .4023.09989.5029 0 .8046-.19979.1006-.09989.6034-.19979.8046v1.5085c.0999.3017-.0999.3017-.0999.5029v3.52c-.09989.3017.0999.3017.0999.5028v3.0172c.0999.3017-.09989.8045.09989.9051-.09989.4023-.39957 0-.79915.1006-.49946.1005-.89904.4023-1.4984.4023.0999-.4023.29968-.6035.29968-1.1063 0-.4023-.39957-.3017-.49946-.5029.19978-.6034.59936-1.1063.69925-1.8103.19979-.5028.69926-1.3074.29968-1.8102-.49947-.1006-.49947.3017-.79915.4022 0 .1006 0 .2012-.09989.2012 0 .1006 0 .2011-.09989.2011 0 .1006-.19979.1006 0 0 0-.1005 0-.2011.09989-.2011 0-.1006 0-.2012.09989-.2012v-.3017c.39958-.6034.69926-1.2068.79915-2.0114.19979-.3017.29968-.704.39957-1.0057.19979-.3017.29969-.9051.0999-1.2069-.49947 0-.79915.3018-.89904.704-.29968-.2011.19978-.4022.09989-.704.09989-.2011.19979-.6034.29968-.8045.19979-.4023.59936-1.3075 0-1.6092-.39957 0-.59936.2012-.69925.5029-.19979.2011-.39958.4023-.49947.704-.39957-.1006-.09989-.704-.19979-1.1063-.09989-.5028.0999-.9051 0-1.2068-.59936-.8046-1.99787-.1006-3.19659-.3018-.09989-.3017-.19978-1.0057-.09989-1.2068.99893-.1006 2.49734.2011 3.19659-.2012 0-.1005 0-.2011.09989-.2011.0999-.704-.29968-1.0057-.49946-1.40799.19978-.80457-.00001-2.01142.09989-3.01713.19978-.10057.29968-.40229.49946-.60343.0999-1.00571.69926-1.50856.69926-2.51428-.29968 0-.59936-.10057-.59936.20115-.29968-.10057-.39957.50285-.49947.20114-.09989-.50286.19979-.60343.29968-1.00571.59936-.40229 1.19873-.80457 1.89798-1.20685 1.69819-.20115 4.5951-.40229 6.0935.20114.0999.60342-.2997.90513-.1998 1.50856h-1.4984c-1.0988.20114-1.99786.704-2.99679 1.00571-.19979.10057-.29968.30172-.49947.40229 0 .40228-.19979.60342-.29968 1.00571-.29968 1.40799-.09989 2.61485-.09989 4.02289Z" fill="#231F20"/></svg>