<svg xmlns="http://www.w3.org/2000/svg">

<!-- Иконки меню -->
  <!-- Поиск -->
  <symbol viewBox="0 0 18 18" id="icon-search">
    <path d="m17.7 16.06-3.48-3.48a7.63 7.63 0 0 0 1.53-4.7c0-4.4-3.48-7.88-7.88-7.88A7.81 7.81 0 0 0 0 7.88c0 4.4 3.48 7.87 7.88 7.87 1.73 0 3.37-.61 4.7-1.53l3.48 3.47c.2.2.4.31.82.31.6 0 1.12-.51 1.12-1.13 0-.2-.1-.5-.3-.81ZM2.24 7.88a5.67 5.67 0 0 1 5.63-5.63 5.67 5.67 0 0 1 5.62 5.63 5.67 5.67 0 0 1-5.63 5.62 5.67 5.67 0 0 1-5.62-5.63Z"/>
  </symbol>
  <!-- Корзина -->
  <symbol viewBox="0 0 21 18" id="icon-cart">
    <path d="M20.188 6.857h-3.55L13.188.381C12.985 0 12.58-.095 12.174.095s-.507.572-.304.953l3.145 5.81H5.783l3.145-5.81c.202-.381 0-.762-.305-.953-.406-.19-.811 0-1.014.286l-3.45 6.476H.812c-.406 0-.812.286-.812.762 0 .381.304.762.812.762h.202l.914 2.857c-.203.095-.305.286-.305.572 0 .38.305.666.71.666L4.058 18h12.884l1.725-5.524c.405 0 .71-.286.71-.667 0-.19-.102-.476-.304-.57l.912-2.858h.203c.406 0 .812-.286.812-.762 0-.476-.406-.762-.812-.762Zm-4.565 9.62H5.073L3.854 12.38h13.087l-1.319 4.095Zm1.623-5.525H3.348l-.812-2.666h15.522l-.812 2.666Z"/>
  </symbol>

<!-- Логотип MISHKA в хедере-->
  <!-- Мобилка -->
  <symbol viewBox="0 0 86 35" id="logo-mobile">
    <path d="M4.55 26.32c0-3.5-.3-6.9-.4-10.4v-1c0 .1.1.2.1.4.5 1.4 1.1 2.7 1.8 3.9.7 1.2 1.1 2.6 1.5 3.9-.2.2-.3.4-.2.6 0 .2.1.2.2.3.5.5 1.5.2 2.1 0 .2-.1.5-.2.7-.4.3-.2.7-.6.6-1 0-.1 0-.2-.1-.2.4-1.1.6-2.2.8-3.3.2-1.2.7-2.3 1.1-3.5 0 .5.1 1 .1 1.6.2 2.1 0 4.3 0 6.4 0 .7 0 1.4.2 2.1.1.3.3 1.5.2 1.6-.5.5-.4 1.1.3 1.2.8.2 1.8-.1 2.3-.6 1-.9.5-2.4.3-3.6-.4-2 .1-4.2 0-6.2-.1-2.3-.4-4.5-.4-6.8 0-1.8.3-3.7-.3-5.5 0-.2.1-.4.1-.6.2-.9-2.8-.4-3.2.4-.3.2-.4.5-.3.8 0 .1.1.1.1.2-.6 2.7-1.3 5.3-2.2 7.9-.3 1-.7 2-1.1 3-.5-.9-1-1.9-1.4-2.8-1.2-2.9-2.2-5.8-3.6-8.6.2-1.3-2.7-1.2-3.3 0-.7 1.4-.6 2.9-.4 4.4.3 1.7.3 3.4.3 5.1 0 3.3.3 6.7.4 10-.3.3-.4.7-.1 1.2.1.2.3.3.5.5 1.2.7 3.3.2 3.3-1Zm18.2-18.4c-.1-.6-3.4.1-3.3.9.3 1.8.2 3.6.1 5.4 0 1.7.4 3.3.6 5 .2 1.7-.1 3.5.1 5.2.1.8.6 2.3.1 3-.4.4 1.2.3 1.3.3.6-.1 1.5-.3 1.9-.9.6-.7.2-2 0-2.8-.3-1.7-.1-3.5-.2-5.3-.1-1.7-.6-3.3-.7-4.9.3-2 .4-3.9.1-5.9Zm3.2 6.7c.9 2.5 4.6 1.3 6.6 1.5 3.2.2 2.3 4.6 2.3 6.6 0 1.1 1 2.9.2 3.8-.5.6-1.7.6-2.4.6-.7.1-1.9.3-2.3-.4-.8-1.2.1-3.2-.1-4.6-.1-.8-3.4-.1-3.3.9.3 2.2-1.2 5.2 2 5.6 2.1.2 4.4-.1 6.3-.8 1-.3 1.9-.8 2.7-1.5.9-.8.6-2 .4-3-.6-2.5.6-5.3-1-7.5-1.7-2.3-5-.7-7.2-1.3-1.2-.2-1.2-1.8-1.2-2.8 0-1.2-.1-2.3-.2-3.5-.1-.9 0-1.8.6-2.4.1-.1.7-.3.7-.3.3-.1.6-.1.9-.1 1.3-.1 3.9.2 3.4 2.1-.2.9 3 .4 3.3-.5 1-3.9-6.1-3.1-8.2-2.6-1.9.5-3.9 1.6-4 3.7-.1 1 .2 2 .3 3 0 1.2-.3 2.4.2 3.5Zm14.4 1.9c-.1 1.8-.2 3.6-.2 5.4 0 .9.1 1.8.3 2.8.1.8.4 2 .2 2.8-.2.6 3 .2 3.3-.6.5-1.5-.2-3.4-.3-4.9-.1-1.5 0-2.9.1-4.4 1.7-.1 3.4-.2 5.1 0l.3 3.5c.1 1 .2 1.9.2 2.9 0 .9.1 2.1-.2 2.9-.7 1.7 2.7 1.6 3.1.3.6-1.6.4-3.5.3-5.2-.3-2.2-.6-4.2-.6-6.3-.1-3.2-.6-6.3-.6-9.5 0-1.7-3.3-1.1-3.3.3 0 3 .4 6 .6 9.1v.2c-1.6 0-3.3.1-4.9.2.2-3.9-.5-7.8-.4-11.7 0-.5-3.3-.1-3.3.9-.2 3.8.4 7.5.3 11.3Zm14.1 5.3c-.3.3-.2.4 0 .5 0 1.5 0 2.9-.2 4.4-.4.6.4 1 .9 1h.1c.6 0 2.2-.3 2.3-1.1.2-1.8.2-3.5.2-5.3 1.3-1.4 2.4-3.1 3.4-4.7.6 1.2 1.2 2.5 1.7 3.9.7 2.3 1.9 4.4 2.6 6.8.5 1.5 3.8.6 3.3-.9-.7-2.3-1.9-4.5-2.6-6.8-.8-2.3-2-4.4-3-6.6.8-1.6 1.7-3.3 2.5-5 .7-1.5 1.2-3.2 2.6-4.3.5-.4.5-.8-.2-.8-.7-.1-1.7.2-2.3.6-1.3 1-2 2.2-2.7 3.6-.8 1.7-1.6 3.4-2.5 5.1-.1.1-.1.2-.2.4-.4.3-.7.6-.5 1.1-.7 1.3-1.3 2.6-2.1 3.9-.3-4.7-.8-9.3-1-14 0-1.1-3.3-.4-3.3.9.2 5.7 1 11.5 1 17.3Zm31.5-6.2c-.2-.7-1.2-.7-1.9-.6v-.8c-.1-2.2-.1-4.5-.3-6.8-.2-2.1-1.3-2.8-3.3-2.7-2 .1-4.4.4-6.3 1.2a5.9 5.9 0 0 0-3.8 4.8c-.5 2.5.2 5.2.3 7.8.1 3 .1 5.9.1 8.9 0 .5 3.3 0 3.3-.9v-7c0-.7 0-1.4-.1-2.1 1.2-.5 3.1 0 4.3.1.9.1 1.8-.1 2.7-.2 0 1.9.1 3.9.2 5.9 0 1 .4 3-.3 3.8-.4.4 1.2.3 1.3.3.7-.1 1.5-.3 1.9-.9.8-.9.4-3.2.3-4.3-.1-1.6-.1-3.2-.1-4.8.8-.4 1.9-1 1.7-1.7Zm-6.6-.2c-1.9 0-3.8-.3-5.7 0l-.3-3.2c-.1-2 .1-4.7 1.9-5.9.5-.3 1.4-.3 2-.4.8-.1 1.6-.3 2.4.2 1 .7.8 3.1.8 4.1 0 1.7.2 3.4.3 5.1-.5.1-1 .1-1.4.1Zm-60.2-11.3c0 .2 0 .4.1.5v.4c.1.2.2.3.4.4.3.2.7.2 1.1.2.4 0 .9-.2 1.2-.4l.2-.2c.4-.3.8-.7.6-1.1-.4-.9-.4-1.9-.3-2.9 0-.8-.8-1.1-1.5-1-.6.1-1.8.5-1.8 1.3s-.1 1.7.1 2.5c-.1.1-.1.2-.1.3Zm61.5 29.2c-1.6-.6-3.3-.6-4.9-.8l-4.9-.6c-1.6.1-3.3 0-5 .1l-4.9.3c-6.5.3-13 .3-19.5.1-6.5-.1-13-.5-19.6-.5-3.3 0-6.6.1-9.9.3-1.6.3-3.2.5-4.9.9-1.6.4-3.1.9-4.8 1 1.6.4 3.3.3 5 .3 1.6 0 3.2.1 4.9.2 3.2-.2 6.5-.2 9.7-.3 6.5 0 13 .3 19.6.5 6.5.1 13.1.2 19.7-.1l4.9-.3c1.6-.1 3.2-.1 4.8-.1 1.6-.1 3.3-.3 4.9-.5 1.7-.2 3.2-.6 4.9-.5h.1v-.6c0 .4 0 .5-.1.6Z" fill="#000"/>
  </symbol>
  <!-- Планшет -->
  <symbol viewBox="0 0 114 46" id="logo-tablet">
    <path d="M110.89 41.8c4.42.9.8-35.81.1-38.2-2.01-6.6-26.84-2.1-32.37-1.7-12.77 1-25.34-1-37.8-.4-6.24.3-35.09-1.8-37.7 2C-1.91 10.67.4 29.23 1.8 38.51c-4.02.8 2.31 4.19 3.12 4.89 6.33 2.19 16.48-.2 23.12.4 15.48 1.5 31.97-2.2 47.55-1 4.53 1.1 9.65 1 14.28 1.2 3.52 5.58 19.8-2.4 21-2.2-.1 0 .51.1 0 0Z" fill="#000"/>
    <path d="M26.24 24.35c-.1-2.5-.5-5.1-.5-7.59 0-2.1.4-4.19-.3-6.18 0-.2.1-.4.1-.7.2-1-3.12-.5-3.62.4-.3.3-.5.6-.4.9 0 .1.1.2.1.2-.6 2.99-1.51 5.98-2.52 8.88-.4 1.1-.8 2.2-1.2 3.39-.6-1-1.11-2.1-1.61-3.2-1.31-3.29-2.52-6.58-4.13-9.67.2-1.5-3.01-1.3-3.71 0-.8 1.6-.7 3.19-.4 4.89.3 1.9.3 3.79.4 5.78 0 3.8.3 7.49.4 11.28-.3.4-.4.8-.1 1.3.2.2.3.4.5.5.9.7 3.32.1 3.32-1.2 0-3.9-.3-7.79-.4-11.68v-1.1c.1.1.1.3.2.4.6 1.5 1.2 3 2.1 4.4.81 1.4 1.21 2.89 1.72 4.39-.2.2-.3.4-.2.7 0 .2.1.3.2.3.6.5 1.7.3 2.4 0 .31-.1.51-.2.81-.4.3-.2.8-.6.7-1.1 0-.1-.1-.2-.1-.3.4-1.2.71-2.5.91-3.7a25 25 0 0 1 1.2-3.89c0 .6.1 1.2.1 1.8.2 2.4 0 4.79 0 7.18 0 .8.1 1.5.2 2.3.11.3.31 1.7.31 1.8-.6.5-.4 1.2.4 1.4.9.2 2.01-.1 2.62-.7 1.1-1 .6-2.7.3-4-.3-2 .3-4.49.2-6.78ZM34.18 25.05c-.1-1.9-.7-3.7-.7-5.6 0-2.19.2-4.38-.1-6.48-.1-.7-3.82.1-3.72 1 .3 2 .2 4 .2 5.99 0 1.9.4 3.69.7 5.58.3 2-.1 3.9.1 5.9.1.89.7 2.59.1 3.38-.4.5 1.41.3 1.51.3.7-.1 1.71-.4 2.21-1 .6-.8.2-2.29.1-3.19-.5-1.9-.3-3.99-.4-5.88ZM49.76 21.85c-2-2.6-5.63-.7-8.14-1.5-1.3-.4-1.3-2.19-1.3-3.19 0-1.4-.1-2.6-.3-3.89-.1-1 0-2 .7-2.8.1-.1.8-.3.8-.3.3-.1.6-.1 1-.1 1.51-.1 4.43.2 3.83 2.4-.3 1 3.41.4 3.72-.6 1.2-4.39-6.94-3.49-9.25-2.89-2.11.6-4.43 1.8-4.53 4.2-.1 1.19.3 2.29.3 3.38.1 1.3-.2 2.6.3 3.9 1.01 2.79 5.23 1.5 7.45 1.7 3.61.3 2.6 5.18 2.6 7.48.01 1.2 1.12 3.29.21 4.29-.6.6-1.91.7-2.61.7-.8.1-2.11.3-2.62-.4-.9-1.3.1-3.6-.1-5.1-.1-.9-3.92-.1-3.72 1 .3 2.5-1.3 5.8 2.31 6.3 2.32.3 4.93-.2 7.14-.9 1.1-.4 2.21-.9 3.12-1.7 1-.9.7-2.2.4-3.4-.8-2.99.5-6.18-1.3-8.58ZM66.35 21.65c-.1-3.59-.7-7.08-.7-10.67 0-1.9-3.82-1.2-3.82.3 0 3.39.5 6.78.6 10.17v.2c-1.8 0-3.72.2-5.63.2.2-4.39-.6-8.78-.4-13.07 0-.6-3.72-.1-3.72 1-.2 4.19.6 8.48.4 12.67-.1 2-.2 4-.2 6.09 0 1 .2 2.1.3 3.1.1.89.5 2.19.2 3.09-.2.7 3.42.3 3.72-.7.5-1.7-.2-3.8-.4-5.5-.2-1.59 0-3.28.1-4.98 1.91-.1 3.92-.3 5.83 0l.3 3.9c.1 1.09.2 2.19.2 3.28 0 1 .1 2.4-.2 3.3-.7 2 3.02 1.8 3.52.3.7-1.8.5-4 .4-5.8-.1-2.19-.5-4.58-.5-6.88ZM82.44 25.94c-.9-2.59-2.31-4.89-3.42-7.38 1-1.9 1.91-3.7 2.81-5.59.8-1.7 1.41-3.59 2.92-4.79.5-.4.5-.8-.2-.9-.8-.1-2.01.2-2.61.7a9.51 9.51 0 0 0-3.02 4.1c-.9 1.89-1.81 3.89-2.82 5.78-.1.1-.1.3-.2.4-.5.3-.7.7-.6 1.2-.8 1.5-1.5 3-2.41 4.39-.3-5.29-.9-10.48-1.1-15.77 0-1.2-3.83-.5-3.73 1 .2 6.49 1.2 12.97 1.2 19.46-.3.3-.2.5.1.6 0 1.7-.1 3.29-.2 4.99-.4.7.41 1.1 1.01 1.1h.1c.7 0 2.52-.3 2.62-1.3.2-2 .2-4 .2-5.99a28.4 28.4 0 0 0 3.82-5.29c.7 1.4 1.4 2.8 1.9 4.3.81 2.59 2.22 4.98 3.02 7.58.5 1.7 4.23.7 3.72-1-.9-2.6-2.2-5-3.11-7.59ZM104.86 21.55c-.2-.8-1.31-.8-2.22-.7v-1c-.1-2.49-.2-5.08-.4-7.58-.2-2.3-1.5-3.19-3.82-3.09-2.31.1-5.02.5-7.14 1.3a6.5 6.5 0 0 0-4.32 5.39c-.5 2.89.2 5.88.4 8.78.1 3.29.1 6.68.1 9.98 0 .5 3.72 0 3.72-1v-7.89c0-.8 0-1.5-.1-2.29 1.31-.6 3.52 0 4.83.1 1.1.1 2.11-.2 3.12-.3 0 2.2.1 4.39.2 6.59 0 1.1.5 3.39-.3 4.29-.4.5 1.4.3 1.5.3.8-.1 1.71-.4 2.21-1 .91-1.1.4-3.6.4-4.9-.1-1.79-.1-3.58-.1-5.38.91-.1 2.12-.8 1.92-1.6Zm-13.88-.2-.3-3.59c-.2-2.2.1-5.29 2.21-6.58.6-.4 1.61-.3 2.22-.4.9-.2 1.9-.4 2.71.2 1.1.8.9 3.49.9 4.59 0 1.9.2 3.79.3 5.68-.5.1-1.1.1-1.6.1-2.21-.1-4.43-.4-6.44 0ZM30.96 10.38c.5 0 1.01-.2 1.41-.5.1-.1.2-.1.2-.2.5-.3.9-.8.7-1.3-.5-1-.4-2.1-.4-3.2 0-.89-.9-1.19-1.7-1.09-.7.1-2.12.6-2.12 1.4 0 .9-.1 1.9.1 2.8 0 .1-.1.2-.1.3-.1.2 0 .4.1.6v.39c.1.2.2.4.4.5.51.3 1.01.3 1.41.3Z" fill="#fff"/>
  </symbol>
  <!-- Десктоп -->
  <symbol viewBox="0 0 149 72" id="logo-desktop">
    <path d="M144.16 31.1c-1.51 1.1-3.12 1.88-4.73 2.77 0-1.68-.1-3.46-.6-5.04.1-.3.1-.69.1-.98.4-2.96.7-7.01-2.02-9.08-.3-.3-1.2 0-1.91.3-.2-.2-.3-.3-.5-.4-.1-.2-.2-.5-.2-.7 0-.1-.2-.2-.4-.2.3-.39.3-.78-.41-1.08-.4-.2-.8-.3-1.1-.4-.1-.09-.1-.09-.2-.09-.91-.3-1.92-.5-2.93-.7.1-.29.4-.78.6-.98.1-.2.3-.3.4-.4l.2-.2s.11 0 .11-.09l.1-.1c.4-.3.8-.89.2-1.18-.6-.3-1.5-.1-2.01.2a7.02 7.02 0 0 0-2.12 2.36c-2-.2-4.02-.2-6.14-.1.1-.1.1-.2.1-.3.2-.58-.9-.48-1.2-.48l-4.73.59c1.4-3.75 3.12-8.5 1-12.14C114.57.6 111.85.1 109.63 0c-2.41-.1-4.93.5-7.05 1.58-4.83 2.57-7.14 7.6-8.25 12.93-.5-.69-2.31-.4-2.62.5-.1.3-.2.59-.3.98-.2.2-.3.4-.3.6v.2h-.2c0-.1 0-.2.1-.3.1-.1.2-.2.3-.4.6-2.27 1.2-4.54 1.91-6.71.3-.8-2.51-.4-2.81.4-.4 1.18-.81 2.36-1.11 3.55-.2.1-.4.2-.4.3v.1c-.1-.1-.3-.2-.5-.2v-1c0-.39-2.83 0-2.83.8v1.58c-.2.1-.3.2-.5.3l-.2.19c-.1.1-.1.2-.1.2v.1l-.1.1c-.1.1-.2.3 0 .49.2.2.5.2.7.2h.1v.49h-.7l-.4-.1c0-.4-.7-.5-1.41-.3v-.1c-.1-.59-.2-1.18-.2-1.77.2-.1.5-.2.7-.3.2-.1.3-.2.3-.4v-.19c0-.2-.4-.2-.5-.2h-.6c-.1-1.28-.1-2.56-.1-3.85 0-.79-2.83-.3-2.83.8 0 1.77 0 3.55.2 5.22h-.3v-1.48c0-.98-1.3-1.18-2.11-.79.3-.3.5-.59.4-.98-.4-1.38-.8-2.77-1-4.25-.2-1.38-3.02-.69-2.82.8.2 1.47.6 2.85 1 4.24.2.79 1.31.89 2.12.5-.2.19-.4.48-.4.78v.6c-.3-.3-.5-.3-.91-.3-1.1 0-1.71.88-1.41 1.48-.2 0-.3-.1-.5-.1a11.8 11.8 0 0 1-.7-3.75c0-.9-1.32-.99-2.12-.7v-.2c-.4-.78-.6-1.67-.8-2.46-.3-1.28-3.23-.6-2.83.8.2.58.3 1.27.5 1.87h-.1c-.3.1-.6.2-.9.4-.8.09-1.81.58-1.81 1.18.1.49.1.98.2 1.38-.4.1-1 .1-1.51.2-.3-.8-.5-1.58-.6-2.37-.1-.9-1.61-.9-2.32-.3a24.4 24.4 0 0 0-3.12-5.73c-2.72-3.35-7.25-4.54-11.37-3.65a9.44 9.44 0 0 0-5.04 2.57c-1.2 1.38-1.4 3.06-1.2 4.74.2 1.48.6 3.95 1.6 5.92-.4 0-.7 0-.9.1-.3.1-.6.2-.8.4-1.92 0-3.93 0-5.84-.1-4.23-.2-8.36-.9-12.59-.7-.9 0-1.5.7-1.5 1.29a4.23 4.23 0 0 0-2.12 2.27c-1.71-1.09-3.52-2.27-5.34-3.16-.7-.4-3.32.69-2.31 1.18 1.81.9 3.62 2.08 5.33 3.16.5.3 1.31.1 1.81-.1 0 0 .1 0 .2-.1a9.5 9.5 0 0 0 .2 4.45c0 .1.1.2.2.3v1.18c-.4.2-.7.5-.8.79-.2 1.38-.3 2.76-.3 4.14-.3.2-.5.5-.5.8-.2 3.25 0 6.6.5 9.86.2 2.67.7 5.24 1.21 7.9.1.4.1.8.2 1.28a8.04 8.04 0 0 0-.2 3.46c-.9.2-1.71.89-1.2 1.58a8.03 8.03 0 0 0 2.6 2.56c-.6-.1-1.4.1-1.9.6-.8.79-1.71 1.48-2.52 2.27-.4.4-.3.89.3 1.08.7.2 1.51-.1 2.02-.49.8-.79 1.7-1.48 2.51-2.27.2-.2.3-.5.2-.7 3.22 1.69 7.25 1.3 11.18.9-.9 1.58-1.51 3.25-2.22 4.93-.3.7 2.52.4 2.82-.4.6-1.67 1.2-3.25 2.11-4.83 3.73.1 7.55.1 11.28.1.1.2.4.3.7.3 3.33.3 6.55-.1 9.77-.7 4.83-.2 9.66-.49 14.5-.79 7.54-.2 15.2-.3 22.74-.3l.3.3c.3.3.61.3 1.01.3h.2c.7 0 1.41.1 2.12.1.2 0 .3.1.6 0 .8.1 1.61.1 2.32.2.2.2.5.3.8.4 3.83.29 7.65.49 11.48.68.1.2.5.3.8.3 7.15.1 15.4 2.76 21.75-1.68.5-.4.3-.89-.3-.99h-.3a49.86 49.86 0 0 0 2.91-8.49c.4-.2.6-.49.6-.88 0-1.19.2-2.37.4-3.56.21-.89.31-1.77.41-2.66.4-2.17.8-4.35 1-6.42a43.92 43.92 0 0 0 6.65-3.75c1.61-1.18-.8-1.88-1.81-1.18ZM88.39 16.3l-.1.1c.1-.3.1-.6.2-.9h.1c0 .2-.1.5-.2.8Z" fill="#000"/>
    <path d="M63.73 12.55c.1.2.6.2.8.2.4 0 .81-.1 1.11-.2.4-.2 1.1-.6.8-1.09-.4-.6-.6-1.18-1-1.78-.1-.2-.6-.2-.8-.2-.4 0-.81.1-1.11.2-.4.2-1.11.6-.8 1.09.3.6.6 1.28 1 1.78Zm-42.88-1.68c.2.6 1.1.6 1.6.5.51-.1 1.42-.6 1.21-1.3-.2-.58-.4-1.27-.9-1.77s-1.31-.4-1.91-.2c-.4.2-1.21.8-.7 1.29.4.6.5.89.7 1.48Zm10.06 2.96c.8 0 3.12-1.28 1.21-1.28-.9 0-3.12 1.28-1.2 1.28Zm92.51-1.58c.3.1.7 0 1.11-.1.3-.1.7-.2.9-.5.4-.39.71-.68 1.01-1.18.1-.2.2-.4 0-.59-.2-.2-.5-.2-.8-.3-.4 0-.8.1-1.11.2-.3.1-.6.3-.8.6-.1.2-.2.39-.4.49l-.2.2c-.21.2-.31.4-.31.59.1.4.3.5.6.6Zm13.39 5.33c.6-.1 1.41-.2 1.91-.69 1.31-1.09 2.62-2.17 3.63-3.55.3-.4-1-.2-1.11-.2-.5.1-1.3.3-1.71.7-.9 1.27-2.22 2.26-3.42 3.35-.5.4.4.4.7.4Zm10.87 26.75h-4.93c-.6 0-1.51.5-1.61 1.09-.1.69.8.89 1.3.89h4.94c.6 0 1.51-.5 1.61-1.09.1-.69-.7-.89-1.3-.89Zm-90.29 15.8c-.5.1-1.41.3-1.61.79-.5 1.28-1.01 2.56-1.41 3.85-.2.69 2.61.3 2.82-.5.4-1.28.8-2.56 1.4-3.85.2-.5-1-.3-1.2-.3Zm4.63 2.57c-.3 0-.7.1-1 .2-.31.09-.71.19-1.02.39-.1.1-.3.2-.3.4v.29c0 .1-.1.2-.1.3-.1.1-.1.19 0 .29.2.1.5.1.7.1.4 0 .71-.1 1.11-.3.2-.1.6-.2.8-.4.11-.2.21-.29.31-.49V63c0-.3-.4-.3-.5-.3Zm55.46 3.65c-.4-.7-3.02.3-2.81.79.8 1.57 1.9 3.06 2.91 4.63.4.7 3.02-.39 2.82-.78-1-1.58-2.11-3.06-2.92-4.64Zm4.03-2.37c-.3-.6-1.1-.6-1.61-.4-.4.1-1.51.6-1.2 1.19.4.79.8 1.58 1.2 2.27.3.59 1.1.59 1.61.4.4-.1 1.51-.6 1.2-1.2-.4-.68-.8-1.47-1.2-2.26ZM5.75 42.65c-1.51.4-3.02.6-4.53 1-.5.09-1.31.58-1.21 1.27.2.7 1.1.7 1.71.6 1.51-.4 3.02-.6 4.53-.99.5-.1 1.3-.7 1.2-1.28-.3-.7-1.2-.7-1.7-.6Z" fill="#000"/>
    <path d="M44.1 39.7c-.1-2.67-.5-5.34-.5-8 0-2.18.4-4.45-.4-6.52 0-.2.1-.5.1-.69.2-1.09-3.33-.5-3.83.5-.3.29-.5.59-.4.98 0 .1.1.2.1.3a99.61 99.61 0 0 1-2.62 9.38c-.4 1.18-.9 2.36-1.3 3.55-.61-1.09-1.22-2.17-1.72-3.36-1.4-3.45-2.62-6.9-4.33-10.17.2-1.48-3.22-1.38-3.92 0-.81 1.68-.7 3.36-.4 5.24.3 2.07.4 4.04.4 6.12 0 3.95.4 7.9.4 11.84-.4.4-.5.9-.1 1.38l.6.6c.9.69 3.52.1 3.52-1.29 0-4.14-.3-8.19-.4-12.34v-1.18c.1.1.1.3.2.4.6 1.57 1.31 3.15 2.22 4.63.9 1.48 1.3 3.06 1.81 4.64-.2.2-.3.5-.2.7 0 .2.1.3.3.39.6.6 1.91.3 2.52 0 .3-.1.6-.3.8-.4.3-.2.9-.69.7-1.18 0-.1-.1-.2-.1-.3.51-1.28.71-2.56 1.01-3.94.3-1.39.8-2.77 1.31-4.15.1.6.1 1.28.2 1.88.2 2.56 0 5.03 0 7.6 0 .88.1 1.58.2 2.46.1.3.4 1.78.3 1.88-.6.6-.4 1.28.4 1.38.91.2 2.12-.1 2.83-.69 1.2-1.09.6-2.86.4-4.24-.6-2.37-.1-5.04-.1-7.4Zm8.46.68c-.1-1.97-.81-3.85-.81-5.82 0-2.27.2-4.54-.2-6.81-.1-.7-4.13.1-4.03 1.08.3 2.08.2 4.25.2 6.32 0 2.08.5 3.85.7 5.93.31 2.07-.1 4.14.1 6.21.11 1 .81 2.77.11 3.56-.4.5 1.51.3 1.61.3.8-.1 1.81-.4 2.32-1 .7-.78.2-2.36.1-3.35-.2-2.27 0-4.34-.1-6.42Zm16.6-3.35c-2.1-2.77-5.93-.8-8.65-1.58-1.41-.4-1.41-2.27-1.41-3.36 0-1.38-.1-2.76-.3-4.14-.1-1.09 0-2.08.8-2.87.1-.1.9-.3.8-.3.41-.1.71-.1 1.11-.1 1.62-.09 4.74.2 4.13 2.48-.3.98 3.63.4 3.93-.6 1.2-4.54-7.45-3.65-9.87-3.06-2.21.6-4.73 1.88-4.83 4.35-.1 1.18.3 2.37.3 3.55.1 1.38-.2 2.76.3 4.15 1.11 2.96 5.64 1.58 7.86 1.77 3.92.3 2.71 5.43 2.81 7.9 0 1.28 1.21 3.46.2 4.44-.6.7-2 .7-2.81.8-.8.1-2.22.29-2.82-.5-1-1.38.1-3.75-.1-5.43-.2-.99-4.23-.1-4.03.99.3 2.66-1.4 6.12 2.42 6.61 2.51.3 5.23-.2 7.65-.89 1.2-.4 2.31-.98 3.32-1.77 1-.9.7-2.37.4-3.56-.7-2.96.7-6.32-1.2-8.88Zm17.62-.2c-.1-3.75-.7-7.5-.7-11.25 0-1.98-4.03-1.29-4.03.3 0 3.55.5 7.1.7 10.75v.2c-2 0-3.92.2-5.93.2.2-4.64-.6-9.18-.4-13.82 0-.6-3.93-.1-4.03 1.08-.2 4.45.6 8.89.5 13.33l-.3 6.42c0 1.08.2 2.17.3 3.25.1 1 .5 2.37.2 3.26-.2.8 3.62.3 3.93-.69.5-1.78-.2-4.05-.4-5.82-.2-1.68 0-3.46.1-5.24 2-.1 4.12-.3 6.14 0l.3 4.15c.1 1.18.2 2.27.2 3.46 0 .98.1 2.46-.2 3.45-.8 2.07 3.22 1.88 3.82.4.7-1.88.5-4.15.4-6.13-.2-2.36-.6-4.83-.6-7.3Zm17.12 4.54c-.91-2.76-2.42-5.13-3.63-7.8 1-1.97 2.01-3.85 3.02-5.82.8-1.78 1.51-3.85 3.12-5.04.6-.49.6-.88-.3-.98-.9-.1-2.11.2-2.82.69a11.17 11.17 0 0 0-3.22 4.24c-1 2.08-1.91 4.05-3.02 6.02-.1.1-.2.3-.2.4-.5.3-.8.79-.6 1.28-.81 1.58-1.62 3.06-2.52 4.64-.3-5.53-1.01-11.05-1.21-16.58 0-1.29-4.03-.5-4.03 1.08.2 6.82 1.21 13.63 1.31 20.54v.1c-.3.3-.2.49.1.59 0 1.77-.1 3.45-.2 5.23-.5.79.5 1.09 1.1 1.09h.1c.71 0 2.63-.4 2.73-1.39.2-2.07.3-4.14.2-6.22a32.57 32.57 0 0 0 4.12-5.62 26.2 26.2 0 0 1 2.02 4.54c.9 2.76 2.31 5.23 3.22 8 .5 1.77 4.53.69 4.03-1.1-.91-2.66-2.32-5.22-3.33-7.89Zm23.95-4.64c-.2-.79-1.4-.89-2.31-.79v-.99c-.1-2.66-.2-5.33-.4-8-.2-2.46-1.62-3.35-4.03-3.25-2.42.1-5.34.5-7.65 1.38a7.06 7.06 0 0 0-4.63 5.63c-.6 2.96.2 6.22.4 9.18.2 3.46.1 7 .1 10.46 0 .6 4.03 0 4.03-1.08v-8.3c0-.78-.1-1.57-.1-2.46 1.4-.6 3.72 0 5.13.1 1.1.1 2.22-.2 3.32-.3 0 2.27.1 4.64.2 6.91 0 1.19.5 3.55-.4 4.54-.4.5 1.51.3 1.61.3.8-.1 1.81-.4 2.32-1.09 1-1.08.5-3.75.4-5.13-.1-1.88-.1-3.85-.1-5.73 1 .2 2.31-.59 2.11-1.38Zm-14.9-.2-.3-3.75c-.2-2.37.1-5.52 2.32-7 .6-.4 1.7-.3 2.41-.4 1.01-.2 2.02-.4 2.92.2 1.21.79.9 3.65.9 4.83 0 1.98.21 3.95.31 6.03-.6.1-1.1.1-1.71.1-2.32-.1-4.63-.4-6.85 0ZM49.13 24.98c.5-.1 1.11-.2 1.51-.49.1-.1.2-.1.3-.2.5-.3 1.01-.79.7-1.38-.5-1.08-.4-2.27-.4-3.35 0-1-1-1.29-1.8-1.19-.71.1-2.22.6-2.22 1.48 0 .99-.1 1.98.1 2.96 0 .1-.1.2-.1.4-.1.2 0 .4.1.59v.4c.1.2.2.39.4.49.4.3.91.3 1.41.3Z" fill="#fff"/>
  </symbol>

<!-- Логотип MISHKA в футере -->
  <symbol viewBox="0 0 102 34" id="logo-footer">
    <path d="M19.22 21.38c-.1-2.68-.5-5.27-.5-7.95 0-2.2.4-4.38-.4-6.47 0-.2.1-.5.1-.7.2-.99-3.3-.5-3.8.5-.3.3-.5.6-.4 1 0 .1.1.2.1.3-.7 3.18-1.6 6.26-2.6 9.34-.4 1.2-.9 2.3-1.3 3.48-.6-1.09-1.2-2.18-1.6-3.38-1.4-3.38-2.6-6.86-4.3-10.14.2-1.5-3.2-1.4-3.9 0-.8 1.69-.7 3.38-.4 5.17.3 1.99.4 3.98.4 6.07 0 3.97.4 7.85.4 11.83-.4.4-.5.9-.1 1.4.2.2.4.4.6.5 1 .69 3.6.09 3.6-1.3 0-4.08-.3-8.16-.4-12.33v-1.2c.1.1.1.3.2.4.6 1.6 1.3 3.18 2.2 4.67.9 1.5 1.3 3.09 1.8 4.68-.2.2-.3.5-.2.7 0 .2.1.3.3.4.6.49 1.8.3 2.5 0 .3-.1.6-.3.8-.4.3-.2.9-.7.7-1.2 0-.1-.1-.2-.1-.3.5-1.29.7-2.58 1-3.88.3-1.39.8-2.78 1.3-4.07.1.6.1 1.2.2 1.89.2 2.58 0 5.07 0 7.55 0 .8.1 1.6.2 2.5.1.29.4 1.78.3 1.88-.8.5-.6 1.1.2 1.3.9.2 2.1-.1 2.8-.7 1.2-1.1.6-2.79.4-4.18-.5-2.39 0-4.97-.1-7.36Zm8.4.7c-.1-2-.8-3.88-.8-5.87 0-2.29.2-4.57-.2-6.86-.1-.7-4.1.1-3.9 1 .3 2.08.2 4.17.2 6.36 0 1.99.5 3.88.7 5.86.3 2.1-.1 4.18.1 6.17.1 1 .8 2.69.1 3.58-.4.5 1.5.3 1.6.3.8-.1 1.8-.4 2.3-1 .7-.8.2-2.38.1-3.38-.3-1.99-.1-4.17-.2-6.16Zm16.3-3.28c-2.1-2.79-5.9-.8-8.6-1.5-1.4-.4-1.4-2.28-1.4-3.38 0-1.39-.1-2.68-.3-4.07-.1-1.1 0-2.1.7-2.89.1-.1.9-.3.8-.3.4-.1.7-.1 1.1-.1 1.5-.1 4.6.2 4 2.49-.3 1 3.6.4 3.9-.6 1.2-4.57-7.3-3.68-9.7-3.08-2.2.6-4.6 1.79-4.8 4.38-.1 1.19.3 2.38.3 3.58.1 1.39-.2 2.78.3 4.07 1.1 2.99 5.5 1.6 7.8 1.7 3.8.3 2.7 5.46 2.7 7.85 0 1.3 1.2 3.38.2 4.48-.6.7-2 .7-2.8.8-.8.1-2.2.29-2.7-.5-1-1.4.1-3.79-.1-5.38-.1-.9-4.1-.1-3.9 1 .3 2.58-1.4 6.06 2.4 6.56 2.4.3 5.2-.2 7.5-.9a7.9 7.9 0 0 0 3.2-1.78c1-.9.7-2.3.4-3.48-.5-3.09.9-6.47-1-8.95Zm17.4-.2c-.1-3.78-.7-7.46-.7-11.24 0-1.99-4-1.3-4 .3 0 3.58.5 7.16.7 10.74v.2c-1.9 0-3.9.2-5.9.2.2-4.58-.6-9.15-.4-13.83 0-.6-3.9-.1-3.9 1-.2 4.47.6 8.85.5 13.32l-.3 6.37c0 1.1.2 2.19.3 3.28.1 1 .5 2.29.2 3.28-.2.8 3.6.3 3.9-.7.5-1.79-.2-3.97-.4-5.76-.2-1.7 0-3.48.1-5.17 2-.1 4.1-.3 6.1 0l.3 4.07c.1 1.2.2 2.29.2 3.48 0 1 .1 2.49-.2 3.48-.8 2.1 3.1 1.9 3.7.4.7-1.89.5-4.17.4-6.16-.2-2.49-.6-4.88-.6-7.26Zm16.9 4.37c-.9-2.78-2.4-5.17-3.6-7.75 1-1.9 2-3.88 2.9-5.87.8-1.8 1.4-3.78 3.1-5.07.6-.4.6-.9-.3-1-.9-.1-2.1.2-2.8.7-1.4 1.3-2.4 2.68-3.1 4.37-.9 2.1-1.9 4.08-2.9 6.07-.1.1-.1.3-.2.4-.5.3-.8.8-.6 1.3a66.9 66.9 0 0 1-2.5 4.57c-.3-5.47-1-11.04-1.2-16.51 0-1.3-4-.5-3.9 1 .2 6.85 1.2 13.62 1.3 20.48v.1c-.3.3-.2.5.1.6 0 1.78-.1 3.47-.2 5.26-.5.7.5 1.1 1.1 1.1h.1c.7 0 2.6-.3 2.7-1.4.2-2.08.3-4.17.2-6.26 1.6-1.69 2.9-3.58 4.1-5.57.8 1.5 1.5 2.99 2 4.58.9 2.68 2.3 5.27 3.1 7.95.5 1.8 4.5.7 3.9-1-1-2.78-2.4-5.26-3.3-8.05Zm23.5-4.57c-.2-.8-1.4-.8-2.3-.8v-1c-.1-2.68-.2-5.36-.4-7.95-.2-2.48-1.6-3.28-4-3.18-2.4.1-5.2.5-7.5 1.4a6.94 6.94 0 0 0-4.6 5.66c-.5 2.98.2 6.17.4 9.15.2 3.48.1 6.96.1 10.44 0 .6 3.9 0 3.9-1v-8.25c0-.8-.1-1.59-.1-2.38 1.4-.6 3.7 0 5.1.1 1.1.1 2.2-.2 3.2-.3 0 2.29.1 4.57.2 6.86 0 1.2.5 3.48-.4 4.47-.4.5 1.5.3 1.6.3.8-.1 1.8-.4 2.3-1 .9-1.09.5-3.77.4-5.06-.1-1.9-.1-3.78-.1-5.67 1.1-.2 2.4-.9 2.2-1.8Zm-14.6-.1-.3-3.68c-.2-2.29.1-5.57 2.3-6.96.6-.4 1.7-.3 2.4-.4 1-.2 2-.4 2.8.2 1.2.8.9 3.68.9 4.87 0 2 .2 3.98.3 5.97-.6.1-1.1.1-1.7.1-2.3-.2-4.6-.6-6.7-.1ZM24.22 6.66c.5-.1 1-.2 1.5-.5l.2-.2c.5-.3 1-.79.7-1.39-.5-1.09-.4-2.18-.4-3.38 0-1-1-1.19-1.8-1.19-.7.1-2.2.6-2.2 1.5 0 .99-.1 1.98.1 2.98 0 .1-.1.2-.1.4-.1.2 0 .4.1.59v.4c.1.2.2.4.4.5.6.3 1.1.3 1.5.3Z"/>
  </symbol>

  <!-- Иконки соцсетей в футере -->
    <!-- Инстаграм -->
    <symbol viewBox="0 0 22 22" id="icon-insta">
      <path d="M22 12.5849c0-2.3773-.302-4.75471-.302-7.03301 0-.79245-.1006-1.48585-.2013-2.2783-.1006-.29717-.1006-.6934-.2013-1.08963-.3019-.19811-.2013-.59434-.5032-.79245-.4026-.19811-1.2078-.09906-1.7111-.19811-.7045 0-1.3084-.09906-1.9123-.19812-1.9124-.09905-4.0261-.09905-6.0391-.09905C9.11669.89623 7.10367.79717 5.39261.5H3.17829c-.10065 0-.10065.09906-.2013.09906-.60391 0-1.10716.19811-1.61042.29717-.2013.09905-.4026.19811-.70455.29717-.10065.19811-.50326.09905-.6039.39622-.20131.19812.2013.49529 0 .59434v.89151c.2013.09906 0 .59434.10064.79246v.99056c0 1.28774.10065 2.37736.10065 3.6651.50326 2.77361.4026 6.43871.10066 9.31131.2013.5943.4026 1.0896.50325 1.684.30195.4953.30195 1.0896.70455 1.4858.50326.1981 1.20782.1981 1.91237.1981.4026.0991.70456.2972 1.10716.2972 2.81822-.1981 5.5358-.1981 8.4547-.1981 2.7175.1981 5.8377.1981 8.354-.1981.2013-.0991.1006-.4953.2013-.7925-.1007-.3962.2013-.3962.2013-.7924C22 17.4387 22 15.0613 22 12.5849ZM8.91539 6.4434c.80521-.19812 1.50981-.29717 2.41561-.29717.7046.09905 1.3085.29717 1.9124.49528.1006.19811-.2013.49528.2013.6934.1006 0 .1006-.00001.2013.09905.4026 0 .8052.19812 1.1071.39623.5033.09906.5033.49528 1.1072.39623-.1007.19811-.1007.49528-.1007.79245.302 1.18863.5033 2.77363.302 4.25943-.2013.1981-.2013.3962-.302.6934-.3019.2972-.5032.7925-.8052 1.0896-.1006.1981-.3019.3962-.5032.4953-.1007.1981-.2013.4953-.5033.4953-.3019.1981-.6039 0-.8052-.0991-.4026.1981-.9058.2972-1.2078.5944-.8052-.0991-1.6104-.1981-2.41561-.2972-.2013-.0991-.50325-.2972-.8052-.2972-.20131-.1981-.50326-.3962-.80521-.4953-.10065-.099-.30195-.099-.50325-.1981-.20131 0-.20131-.1981-.50326-.1981-.10065-.3962-.4026-.5943-.50325-1.0896-.2013-.2972-.30196-.7925-.50326-1.1887 0-1.3868.10065-2.6745.4026-3.76413.30196-.59434.80521-1.08962 1.10717-1.68396.2013 0 .4026-.09906.4026-.29717.30195.09905.4026-.09906.70455-.09906.20131 0 .20131-.29717.40261-.49528ZM7.20432 3.76887c-.10065-.29717-.10065-.6934-.10065-1.08962 0-.29717.30196-.29717.30196-.49529 0-.09905-.10066-.09905-.20131-.09905.10065-.09906.70456-.09906.80521 0 .10065.49528-.4026.49528-.50325.69339 0 .19812.30195 0 .50325.09906 0 .89151-.10065 1.48585 0 2.17925h-.50325c0 .19811.2013.19811.50325.19811-.10065.29717.10065.39622.10065.59434-.2013.19811-.70456 0-1.10716.09905 0-.59434.30195-1.38679.2013-2.17924Zm-.70455-1.58491c.10065 0 .10065 0 .2013.09906.2013.29717 0 .6934-.10065.89151-.20131-.19811 0-.6934-.10065-.99057Zm.2013 1.78302c-.10065-.09906-.2013-.19811-.2013-.49528.2013.09905.2013.29717.2013.49528Zm0 1.38679c-.10065.09906-.10065 0-.10065-.19811.10065-.09906.10065.09906.10065.19811Zm-.2013.19812c.2013 0 .10065.19811.2013.19811 0 .19812-.30195.19811-.40261.09906.10066-.09906.20131-.19812.20131-.29717ZM4.1848 4.36321c0-.09906 0-.19812-.10066-.19812-.10065-.69339.10066-1.38679 0-1.98113.30196-.19811.80521 0 1.10717-.09905v1.08962c-.10065.09906-.20131.09906-.40261.09906-.10065.29717.30196.09905.40261.29717 0 .89151-.10065 1.78301.2013 2.37735-.60391-.09905-.90586.09906-1.40911.09906.10065-.59434 0-1.38679.50325-1.58491 0-.09905-.30195 0-.30195-.09905Zm-.50326 0c-.2013 0-.2013-.49528-.10065-.59434.30195 0 .2013.49528.10065.59434Zm-.2013.99056c.10065-.29717 0-.29717.10065-.69339.2013 0 .2013.79245-.10065.69339Zm.2013-2.08018c-.30195.09905-.30195-.29717-.2013-.39623.30195 0 .40261.29717.2013.39623Zm0-1.08963c0 .19812-.10065.19812-.10065.29717-.2013 0-.10065-.19811-.2013-.19811.10065-.09906.2013-.09906.30195-.09906Zm-.2013 3.6651c.10065 0 .10065.29717-.10065.19811.10065 0 .10065-.09906.10065-.19811Zm-.70456-3.6651c0 .29717-.4026.29717-.4026 0h.4026Zm-1.0065.09906c0 .19811-.30195.19811-.40261.39623-.2013-.19812.10065-.49529.40261-.39623Zm-.40261.69339c.20131-.19811.50326-.39622.70456-.59433 0-.09906.10065-.09906.10065-.19812h.2013c.10065.39623-.30195.29717-.30195.49529 0 .09905-.10065.09905-.10065.19811 0 .29717.10065.59434.10065.99057-.30195 0-.30195.29717-.60391.19811 0-.39623-.2013-.59434-.10065-1.08963Zm.10065 3.26888V4.66038c.20131-.19812.40261-.39623.60391-.49529.30195.49529.2013 1.3868.50325 1.88208-.4026.09906-.8052.09906-1.10716.19812ZM19.7857 17.2406c-.1007.9905-.2013 1.9811-.4026 2.7736-2.9189.099-6.0391-.0001-8.9579.1981-.2013 0-.302 0-.2014-.1981-.3019 0-.3019.1981-.50321.1981.20131-.2972.40261-.8916.20131-1.2878-.80521 0-.80521.7925-1.10716 1.2878-.70456-.0991-1.10716.099-1.81172.099.2013-.6934.70456-.9905.90586-1.6839-.4026-.4953-1.00651.099-1.20781.4952-.2013.4953-.60391.7925-.80521 1.2878H4.88935c.20131-.4953.50326-.8915.80521-1.3868.2013-.4953.60391-.6934.70456-1.3868-.2013-.2972-.40261 0-.70456 0-.10065.1981-.30195.2972-.4026.4953-.20131.3962-.50326.6934-.70456 1.0896-.2013.1981-.30195 0-.50326.1981-.4026.2972-.6039.6934-1.0065.9906-.20131-.0991 0-.3962.2013-.3962 0-.1982-.10065-.4953.10065-.5944.10065-.3962.2013-.5943.4026-.8915.10065-.6934.50326-1.1887.70456-1.8821-.60391.0991-.70456.5944-1.00651.9906-.2013.3962-.50325.7924-.70456 1.2877-.2013-.099.00001-.5943-.10065-.7924.10066-.5944.30196-1.0897.40261-1.684.10065-.1981.2013-.4953.2013-.7924.2013-.1982 0-.5944-.10065-.7925-.2013 0-.4026.0991-.50326.2972-.2013 0-.2013.4953-.30195.2971 0-2.5754-.50325-4.7547-.50325-7.33014 0-.29717-.2013-.39623-.2013-.6934 1.61041 0 3.12017.09906 4.83124.19811-.10065.09906-.2013.29718-.30196.39623-.10065.09906-.2013.19812-.4026.29717-.60391 1.68393-1.00651 3.96223-.6039 6.14153.2013.5943.6039.9905 1.0065 1.3868.90586.4953 1.61042 1.0896 2.51628 1.6839 1.71111.3963 3.82471.3963 5.53581 0 .2013-.099.5032-.1981.7045-.3962 1.4092-1.1887 2.8183-2.4764 3.0196-4.8538v-1.3868c-.2013-1.58486-.7046-2.8726-1.7111-3.56599.3019-.19812 1.1072-.00001 1.7111.09905h.7045c.4026 0 .9059-.09906 1.4091 0 .1007.19811.1007.49529.2013.79246-.1006 1.68396-.2013 3.26888-.2013 5.05188.1007.4953.1007.9906.2013 1.3868-.2013.7924-.3019 1.684-.5032 2.5755Zm.4026-11.09437c-.6039-.09906-1.2078-.29717-1.9124-.39623.1007-.29717.8052 0 1.0065-.19811.4026-.19811.302-.89151.302-1.48585 0-.29717.1006-.59434.1006-1.08963-.4026-.99056-1.8117-.39622-2.9189-.49528-.2013.6934-.5032 1.78302-.3019 2.67453.2013.49528 1.0065.29717 1.5098.49528-.1007.29717-.7046.09906-1.0065.09906-.302-.09905-.7046-.09906-1.0066-.19811-2.3149.09905-4.3279 0-6.54226.19811.10065-1.18868.10065-2.47641-.10065-3.56604h3.12021c-.302.39623-.9059.49528-1.3085.79245-.4026.19812-.9059.49529-1.1072.89152.2013.09905.5033-.19812.8053-.39623.4026-.09906.5032-.39623.8052-.49529.4026-.39622 1.1071-.59433 1.711-.8915.4026 0 .7046 0 1.0065.09905 1.3085 0 2.5163.09906 3.8248.09906.6039.09906 1.5097.09906 2.013.29717.1006.29717.2013.59434.3019.89151-.1006.99056-.3019 1.78302-.3019 2.67453Zm-5.9384-3.6651c.1006-.09905 0-.09905 0 0Zm0 0c-.5033.19811-1.0065.29717-1.4091.6934.5032-.19811 1.1071-.29717 1.4091-.6934Zm1.1071.59434c.1007-.09905 0-.09905 0 0Zm-1.8117.89151c.7046-.19811 1.2078-.59434 1.7111-.89151-.4026 0-.6039.29717-1.0065.39623-.1007.19811-.5033.19811-.7046.49528Zm-.7045-.79245c-.1007 0 .1006.09906 0 0Zm-.6039.59434c.1006-.09906 0-.09906 0 0Zm-.1007.09906c.1007 0 .1007-.09906 0 0 0-.09906 0-.09906 0 0Zm-.1006 0c.1006 0 .1006 0 0 0 0-.09906 0 0 0 0Zm-.8052.59433c.3019-.09905.6039-.29716.8052-.59433-.302.19811-.6039.39622-.8052.59433Zm2.3149.99057c.5033 0 .7046-.39623 1.2078-.49528.302-.29717.8052-.39623 1.0065-.79246-.6039 0-.8052.39623-1.2078.49529-.3019.39622-.8052.49528-1.0065.79245Zm-2.3149-.99057c-.302 0 0 .29717 0 0Zm-.6039.39623c.1006 0 .2013 0 0 0 .1006-.09906 0 0 0 0Zm2.9188.59434c-.2013.09906 0 .09906 0 0Zm-1.2078 1.78302c-.2013-.19811-.7045-.19811-1.0065-.39623-.7045 0-1.2078.09906-1.71106.19812-.30195.19811-.6039.29717-.90585.49528-.30196.19811-.40261.39623-.80521.49528-.2013.19812-.4026.49528-.70456.59434 0 .19811-.2013.29717-.30195.39623-.10065.09905-.10065.29717-.2013.39622 0 .09906 0 .29718-.10065.29718.10065 1.48583.30195 2.87263.70455 4.16033.30196.5944 1.00651.7925 1.40912 1.2878.6039.2971 1.30841.3962 2.11371.4953.3019-.0991.6039-.0991.9058-.0991 1.2078-.1981 2.1137-.6934 2.8182-1.3868.1007-.2972.302-.4953.5033-.6934-.302-.6934.3019-1.0896.5032-1.5849 0-1.2877-.2013-2.47641-.6039-3.36791-.3019-.59434-.9058-.79246-1.4091-1.08963-.1006 0-.2013 0-.2013-.09905-.2013-.09906-.7045-.19812-1.0065-.09906ZM8.91539 11.5943c-.10065-.099-.10065-.1981-.2013-.3962.30195-.099.2013.1981.2013.3962Zm.10065.2972c0-.099.10065 0 0 0 0 .1981 0 .0991 0 0Zm.4026-2.08018c0-.09906.10065 0 0 0 .10065.09906 0 .09906 0 0Zm1.71106-2.08019c-.2013.29717 0 .59434.1007.79246-.302 0-.6039-.79246-.1007-.79246Zm.4026 3.86317c-.1006 0 0 0 0 0 .1007 0 0 .0991 0 0Zm.7046 2.8727c0-.0991.1006 0 .2013 0 0 .099-.2013.099-.2013 0Zm2.2143-2.4764c-.2013-.0991-.1007.1981-.4026.1981.1006-.1981.1006-.2972.2013-.4953.2013 0 .3019.099.2013.2972ZM13.344 8.22642c.2013.09905.4026.19811.6039.39622.1007.19811.2013.39623.4026.49528.1007.79246.2013 1.48588.2013 2.37738-.3019.099-.4026.2972-.7045.3962-.8052 0-1.4091-.1981-1.9124-.4953-.2013-.2971-.4026-.4953-.5032-.7924V9.51415c.2013-.19811.3019-.39623.5032-.59434.2013-.09906.5033-.19811.5033-.59434 0-.09905-.1007-.09906-.1007-.19811.2013 0 .2013.19811.4026.19811s.302-.19811.6039-.09905Z"/>
    </symbol>
    <!-- Фейсбук -->
    <symbol viewBox="0 0 15 29" id="icon-fb">
      <path d="M11.7035 5.25484c.9989 0 1.9979 0 2.6971-.30171C14.8002 4.14856 15 3.04228 15 1.936c-.1998 0-.0999-.30172-.1998-.40229 0-.20114-.2997-.20114-.2997-.40229-.2996-.20114-.4994-.40228-.6992-.60342-.6993-.20114-1.3985-.30171-2.1977-.50286-.7991 0-1.89795-.10057-2.59721.10057-2.59723 0-3.99573 1.10629-5.29435 2.41371 0 .10057 0 .20114-.09989.20114-.59937 1.60914-.0999 3.62056-.19979 5.63198.09989.40229.09989 1.00572.19979 1.408-.99894.30176-2.19766.40226-3.39638.50286-.29968.3017-.19979 1.1063-.19979 1.7097.0999.6034.29968 1.1063.39958 1.6091.19979.2012.59936.4023.79914.5029.0999 0 .0999.1006.0999.1006.49946.3017 1.4984 0 2.29755.1005-.0999 2.0115.29968 3.9223 0 5.7326 0 .3017.29968.4023.19978.8046 0 1.0057-.09989 2.0114.19979 2.7154-.29968.5028-.49947 1.0057-.39957 1.8103.09989 0 .09989.2011.09989.3017-.09989.5028.59936.2011.49947.704.19979.5028-.39958.2011-.39958.5028v.9052c.49947.3017 1.4984.2011 2.29755.2011.89904-.4023 2.19766-.5028 2.79702-1.2068.49947.2011.89904 0 1.1987-.2012 0-.3017.2997-.3017.1998-.704 0-.3017-.1998-.5028-.0999-.9051v-2.9166c-.1998-2.3131 0-4.928-.29966-7.2411.89906-.1006 1.89796-.1006 2.59726-.4023.3995-.5028.3995-1.2068.4994-1.9108.1998-.2012.1998-.6035.1998-1.0058.1998-.2011.0999-.7039.0999-1.1062-.0999-.60346-.1998-1.30746-.7991-1.40803-.8991-.20114-1.9979.60343-2.99684.30172 0-1.10629-.29968-2.31314 0-3.41942.79914-.20115 1.49844-.40229 2.19764-.60343ZM7.90757 10.0823c.09989.3017.29968.5028.39957.704.0999 0 .19979 0 .19979.1005 1.19872.1006 2.19767-.1005 3.09667-.3017 0 1.0057-.2997 1.7097-.4994 2.5143-.6993 0-1.49845.3017-1.99791.2011-.29968.2012-.39958.5029-.59936.704 0 .4023.09989.5029 0 .8046-.19979.1006-.09989.6034-.19979.8046v1.5085c.0999.3017-.0999.3017-.0999.5029v3.52c-.09989.3017.0999.3017.0999.5028v3.0172c.0999.3017-.09989.8045.09989.9051-.09989.4023-.39957 0-.79915.1006-.49946.1005-.89904.4023-1.4984.4023.0999-.4023.29968-.6035.29968-1.1063 0-.4023-.39957-.3017-.49946-.5029.19978-.6034.59936-1.1063.69925-1.8103.19979-.5028.69926-1.3074.29968-1.8102-.49947-.1006-.49947.3017-.79915.4022 0 .1006 0 .2012-.09989.2012 0 .1006 0 .2011-.09989.2011 0 .1006-.19979.1006 0 0 0-.1005 0-.2011.09989-.2011 0-.1006 0-.2012.09989-.2012v-.3017c.39958-.6034.69926-1.2068.79915-2.0114.19979-.3017.29968-.704.39957-1.0057.19979-.3017.29969-.9051.0999-1.2069-.49947 0-.79915.3018-.89904.704-.29968-.2011.19978-.4022.09989-.704.09989-.2011.19979-.6034.29968-.8045.19979-.4023.59936-1.3075 0-1.6092-.39957 0-.59936.2012-.69925.5029-.19979.2011-.39958.4023-.49947.704-.39957-.1006-.09989-.704-.19979-1.1063-.09989-.5028.0999-.9051 0-1.2068-.59936-.8046-1.99787-.1006-3.19659-.3018-.09989-.3017-.19978-1.0057-.09989-1.2068.99893-.1006 2.49734.2011 3.19659-.2012 0-.1005 0-.2011.09989-.2011.0999-.704-.29968-1.0057-.49946-1.40799.19978-.80457-.00001-2.01142.09989-3.01713.19978-.10057.29968-.40229.49946-.60343.0999-1.00571.69926-1.50856.69926-2.51428-.29968 0-.59936-.10057-.59936.20115-.29968-.10057-.39957.50285-.49947.20114-.09989-.50286.19979-.60343.29968-1.00571.59936-.40229 1.19873-.80457 1.89798-1.20685 1.69819-.20115 4.5951-.40229 6.0935.20114.0999.60342-.2997.90513-.1998 1.50856h-1.4984c-1.0988.20114-1.99786.704-2.99679 1.00571-.19979.10057-.29968.30172-.49947.40229 0 .40228-.19979.60342-.29968 1.00571-.29968 1.40799-.09989 2.61485-.09989 4.02289Z"/>
    </symbol>
    <!-- Твиттер -->
    <symbol viewBox="0 0 24 20" id="icon-twitter">
      <path d="M22.9571 4.24243c-.1943-.40404-.8745-.30304-1.3603-.40405h-1.0689c.0972-.40404.2915-.60606.4859-1.0101.0971-.40404.2915-.70707.1943-1.31313.0972-.20202.1943-.40404.2915-.60606.0972-.10101.1944-.50505.0972-.70707C21.4996 0 21.3053 0 21.0138 0c-.0972 0-.1944.101-.1944.101-.3886.40405-.7773 1.01011-1.2632 1.41415h-.0971c-.0972 0 0 0-.0972.10101s-.2915.20202-.3887.20202c-.2915.20202-.4858.40404-.8745.50505-.4858-.20202-1.166-.30303-1.8462-.40404-1.166.10101-2.2349.20202-2.9151.70707-.8745.30303-1.4575 1.0101-2.0405 1.61617 0 .30303-.2915.40403-.3887.70706 0 0 0 .10102-.0972.10102 0 .20202-.0971.30303-.0971.50505 0 .10101.1943.40404 0 .50505-.77739-.10101-1.45757-.60606-2.04059-1.0101-.68018-.40404-1.45753-.60607-2.04054-1.11112-.68018-.30303-1.2632-.80808-1.74905-1.31313-.19433-.30303-.48584-.50505-.68018-.90909-.38867-.20202-.19433-.90909-.68018-.90909-.29151 0-.29151.20202-.38868.40404-.09717.20202-.38867.20202-.38867.50505 0 0 0 .10101-.09717.10101-.19434 1.11111-.48585 2.0202-.48585 3.33333.09717.40404.29151.70707.58302 1.0101-.38868.10102-.68018.20203-.87452.50506-.09717 1.11111.38867 1.61616.68018 2.32323.09717.40404.38868.70707.58301 1.0101 0 .202.19434.303.29151.404 0 .1011.09717.101.09717.2021 0 .101.29151.202.09717.202-.38868.101-.97169.101-1.2632.404-.09717.3031-.09717.8081 0 1.1111 0 .2021.29151.3031.29151.5051.48584.404 1.06886.7071 1.5547 1.1111.58302.202 1.16603.303 1.84621.404-.09717.3031-.2915.6061-.58301.7071-.77735.404-1.74904.5051-2.62356.7071-.58302 0-.97169.202-1.5547.202-.29151.101-.87453.101-1.06887.202l-.19433.202c-.09717.4041.09717.7071.38867.9091 0 .3031.19434.3031.38868.4041.09717.202.29151.303.38867.404.48585.5051 1.2632.8081 1.84622 1.1111.77735.202 1.5547.4041 2.42922.5051.87452.101 1.84621.101 2.72073.202h.97169C9.645 20 10.3252 20 11.0054 20c.0971-.101.2915-.101.4858-.101.4859-.303 1.166-.4041 1.5547-.7071.583-.202.9717-.606 1.5547-.9091.8745-.808 1.8462-1.3131 2.4292-2.4242.1944-.202.3887-.4041.3887-.7071.2915-.202.3887-.505.583-.7071.3887-.404.6802-.909.9717-1.4141.2915-.505.583-1.1111.8745-1.6162 0-.404.2916-.505.2916-.9091.1943-.202.1943-.70702.3886-.90904 0-.30303 0-.40404.0972-.60606 0-1.31313 0-2.42424-.2915-3.43434.583-.20202 1.166-.30304 1.5547-.60607.7773.30303 1.2632-.101 1.0688-.70706Zm-3.3037 4.0404c-.1943.90909-.583 1.41414-.9717 2.02017.0972.4041-.0972.5051-.0972.9091-.1943.3031-.2915.7071-.3886 1.0101-.1944.3031-.2915.6061-.4859.9091-.3886.5051-.7773 1.1111-1.166 1.6162-.3887.606-.8745 1.0101-1.2632 1.5151-.3887.5051-.8745.9091-1.3604 1.3132-.4858.202-.8745.404-1.2632.707-.1943.101-.4858.202-.6801.3031-.1944.101-.4859.101-.6802.303-1.0689.101-2.23491.202-3.49811.101-.97169-.101-2.04055-.202-2.91507-.404-.87452-.2021-1.45753-.7071-2.23488-1.0101.19434-.2021.58301-.2021.97169-.2021 0-.202.38868 0 .38868-.101.2915.101.2915-.101.48584-.101.58301-.202 1.16603-.303 1.65187-.606.29151-.1011.38868-.4041.68018-.6061 0-.202.09717-.303.19434-.404 0-.3031.19434-.4041.09717-.8081.09717-.202.29151-.3031.29151-.7071-.09717-.101-.09717-.303-.29151-.404 0-.2021-.38867-.101-.38867-.2021-.29151 0-.38868 0-.58302-.101-.19433 0-.48584.101-.48584-.101-.77735 0-1.2632-.404-1.84621-.707.38867-.3031.97169-.4041 1.26319-.7071.48585-.101 1.06886-.101 1.06886-.7071 0-.7071-.77735-.7071-1.2632-.8081-.77735-.70704-1.16602-1.71714-1.74904-2.52522.19434-.20202.58302-.20202.68019-.40404.48584.10101.48584-.30303.68018-.50505 0-.50505-.29151-.60606-.58302-.80808-.2915-.20202-.48584-.50505-.68018-.70707 0-.80809 0-1.71718.09717-2.42425.09717 0 .09717 0 .09717.10101.19434.40404.58302.80809.77735 1.21213.48585.40404.87452.90908 1.55471 1.11111.48584.40404 1.06885.60606 1.5547 1.0101.58301.30303 1.16603.60606 1.65187.90909.68018.20202 1.06888.70707 1.94338.60606.1943-.10101.3887-.20202.583-.30303.2915-.50505-.0972-1.11112.0972-1.61617.2915-.70707.7773-1.0101 1.2632-1.51515.2915-.20202.583-.30303.7773-.50505.2915-.10101.6802-.20202.9717-.40404.3887 0 .6802-.10101.9717-.10101h1.2632c.1943.10101.4859.10101.6802.10101.1943.10101.3887.30303.6802.40404.7773.70707 1.2632 1.71717 1.3603 3.03031 0 .30303.0972.70707.0972 1.31313Zm.2915-5.65657c-.0972.30303-.1943.70707-.583.80808 0-.10101-.0972-.10101-.0972-.20202 0-.20202.1944-.20202.2915-.30303.0972-.10101.1944-.30303.3887-.30303.0972 0 0-.10101 0 0Zm-5.3443 3.0303c.1944.10101.2915.30304.4859.40405.0971.20202.2915.30302.583.40403 0-.20202.2915.00001.3887-.20201.1943 0 .1943-.20203.2915-.30304 0-.50505-.0972-1.0101-.3887-1.31313-.6802-.50505-1.6519 0-1.3604 1.0101Z"/>
    </symbol>

  <!-- Логотип Академии в футере -->
    <symbol viewBox="0 0 27 35" id="logo-htmlacademy">
      <path d="M13.6 0h-.1L0 1.4v24.7l13.5 8 13.4-8V1.4L13.6 0ZM25 12.1 13.5 5.3v-.1h-.1l-.1-.1v.1L1.9 12.1v-9l11.5-1.2L25 3.1v9ZM13.4 6.8l11.5 6.7-4.5 2.6-7.1-4.2v1.4l5.9 3.5-.9.5-5-3v1.4l3.8 2.3-.8.5-3-1.8v1.4l1.9 1.1-1.8 1.1L2 13.6l11.4-6.8ZM1.9 15.1l11.4 6.8v1l-7.9-4.7v1.4l8 4.8v1.1l-8-4.7v1.4l8 4.8 8.1-4.9v-5.2l3.4-2v10l-11.5 6.9L1.9 25v-9.9Z"/>
    </symbol>
</svg>
